<svg id="visual" viewBox="0 0 900 600" width="900" height="600" xmlns="http://www.w3.org/2000/svg" xmlns:xlink="http://www.w3.org/1999/xlink" version="1.1"><path d="M0 43L15 47C30 51 60 59 90 60C120 61 150 55 180 52C210 49 240 49 270 47C300 45 330 41 360 43C390 45 420 53 450 54C480 55 510 49 540 46C570 43 600 43 630 44C660 45 690 47 720 51C750 55 780 61 810 63C840 65 870 63 885 62L900 61L900 0L885 0C870 0 840 0 810 0C780 0 750 0 720 0C690 0 660 0 630 0C600 0 570 0 540 0C510 0 480 0 450 0C420 0 390 0 360 0C330 0 300 0 270 0C240 0 210 0 180 0C150 0 120 0 90 0C60 0 30 0 15 0L0 0Z" fill="#9cc5a7"></path><path d="M0 133L15 128C30 123 60 113 90 113C120 113 150 123 180 128C210 133 240 133 270 125C300 117 330 101 360 97C390 93 420 101 450 100C480 99 510 89 540 87C570 85 600 91 630 92C660 93 690 89 720 95C750 101 780 117 810 124C840 131 870 129 885 128L900 127L900 59L885 60C870 61 840 63 810 61C780 59 750 53 720 49C690 45 660 43 630 42C600 41 570 41 540 44C510 47 480 53 450 52C420 51 390 43 360 41C330 39 300 43 270 45C240 47 210 47 180 50C150 53 120 59 90 58C60 57 30 49 15 45L0 41Z" fill="#8bbb98"></path><path d="M0 241L15 229C30 217 60 193 90 188C120 183 150 197 180 203C210 209 240 207 270 202C300 197 330 189 360 193C390 197 420 213 450 207C480 201 510 173 540 169C570 165 600 185 630 188C660 191 690 177 720 176C750 175 780 187 810 201C840 215 870 231 885 239L900 247L900 125L885 126C870 127 840 129 810 122C780 115 750 99 720 93C690 87 660 91 630 90C600 89 570 83 540 85C510 87 480 97 450 98C420 99 390 91 360 95C330 99 300 115 270 123C240 131 210 131 180 126C150 121 120 111 90 111C60 111 30 121 15 126L0 131Z" fill="#79b189"></path><path d="M0 349L15 349C30 349 60 349 90 342C120 335 150 321 180 335C210 349 240 391 270 392C300 393 330 353 360 354C390 355 420 397 450 406C480 415 510 391 540 370C570 349 600 331 630 324C660 317 690 321 720 327C750 333 780 341 810 350C840 359 870 369 885 374L900 379L900 245L885 237C870 229 840 213 810 199C780 185 750 173 720 174C690 175 660 189 630 186C600 183 570 163 540 167C510 171 480 199 450 205C420 211 390 195 360 191C330 187 300 195 270 200C240 205 210 207 180 201C150 195 120 181 90 186C60 191 30 215 15 227L0 239Z" fill="#6aa37b"></path><path d="M0 523L15 520C30 517 60 511 90 508C120 505 150 505 180 510C210 515 240 525 270 522C300 519 330 503 360 505C390 507 420 527 450 538C480 549 510 551 540 544C570 537 600 521 630 516C660 511 690 517 720 516C750 515 780 507 810 505C840 503 870 507 885 509L900 511L900 377L885 372C870 367 840 357 810 348C780 339 750 331 720 325C690 319 660 315 630 322C600 329 570 347 540 368C510 389 480 413 450 404C420 395 390 353 360 352C330 351 300 391 270 390C240 389 210 347 180 333C150 319 120 333 90 340C60 347 30 347 15 347L0 347Z" fill="#5d916d"></path><path d="M0 601L15 601C30 601 60 601 90 601C120 601 150 601 180 601C210 601 240 601 270 601C300 601 330 601 360 601C390 601 420 601 450 601C480 601 510 601 540 601C570 601 600 601 630 601C660 601 690 601 720 601C750 601 780 601 810 601C840 601 870 601 885 601L900 601L900 509L885 507C870 505 840 501 810 503C780 505 750 513 720 514C690 515 660 509 630 514C600 519 570 535 540 542C510 549 480 547 450 536C420 525 390 505 360 503C330 501 300 517 270 520C240 523 210 513 180 508C150 503 120 503 90 506C60 509 30 515 15 518L0 521Z" fill="#517f5f"></path></svg>